<svg width="170" height="48" viewBox="0 0 170 48" fill="none" xmlns="http://www.w3.org/2000/svg">
<path d="M60.7472 16.592C64.0752 16.592 66.5365 17.372 68.1312 18.932C69.7432 20.4747 70.5492 22.6933 70.5492 25.588C70.5492 27.4773 70.1505 29.1327 69.3532 30.554C68.5732 31.958 67.4378 33.05 65.9472 33.83C64.4565 34.61 62.6452 35 60.5132 35C60.2532 35 59.8978 34.9913 59.4472 34.974C59.0138 34.9567 58.5545 34.948 58.0692 34.948C57.6012 34.9307 57.1678 34.922 56.7692 34.922C56.0585 34.922 55.3652 34.9307 54.6892 34.948C54.0132 34.948 53.4585 34.9653 53.0252 35V34.48C53.5972 34.4453 54.0218 34.376 54.2992 34.272C54.5938 34.168 54.7845 33.96 54.8712 33.648C54.9752 33.336 55.0272 32.868 55.0272 32.244V19.348C55.0272 18.7067 54.9752 18.2387 54.8712 17.944C54.7845 17.632 54.5938 17.424 54.2992 17.32C54.0218 17.1987 53.5972 17.1293 53.0252 17.112V16.592C53.4585 16.6093 54.0132 16.6353 54.6892 16.67C55.3652 16.6873 56.0412 16.6873 56.7172 16.67C57.3412 16.6527 58.0432 16.6353 58.8232 16.618C59.6032 16.6007 60.2445 16.592 60.7472 16.592ZM60.5132 17.06C59.7158 17.06 59.1958 17.2073 58.9532 17.502C58.7105 17.7967 58.5892 18.3947 58.5892 19.296V32.296C58.5892 33.1973 58.7105 33.7953 58.9532 34.09C59.2132 34.3847 59.7418 34.532 60.5392 34.532C62.1512 34.532 63.4078 34.194 64.3092 33.518C65.2278 32.8247 65.8692 31.8193 66.2332 30.502C66.6145 29.1847 66.8052 27.5813 66.8052 25.692C66.8052 23.7507 66.5972 22.1473 66.1812 20.882C65.7825 19.5993 65.1238 18.646 64.2052 18.022C63.2865 17.3807 62.0558 17.06 60.5132 17.06ZM78.5058 16.592V17.112C77.9511 17.1293 77.5265 17.1987 77.2318 17.32C76.9545 17.424 76.7638 17.632 76.6598 17.944C76.5558 18.2387 76.5038 18.7067 76.5038 19.348V32.244C76.5038 32.868 76.5558 33.336 76.6598 33.648C76.7638 33.96 76.9545 34.168 77.2318 34.272C77.5265 34.376 77.9511 34.4453 78.5058 34.48V35C78.0725 34.9653 77.5178 34.948 76.8418 34.948C76.1658 34.9307 75.4811 34.922 74.7878 34.922C74.0078 34.922 73.2798 34.9307 72.6038 34.948C71.9278 34.948 71.3731 34.9653 70.9398 35V34.48C71.5118 34.4453 71.9365 34.376 72.2138 34.272C72.5085 34.168 72.6991 33.96 72.7858 33.648C72.8898 33.336 72.9418 32.868 72.9418 32.244V19.348C72.9418 18.7067 72.8898 18.2387 72.7858 17.944C72.6991 17.632 72.5085 17.424 72.2138 17.32C71.9365 17.1987 71.5118 17.1293 70.9398 17.112V16.592C71.3731 16.6093 71.9278 16.6267 72.6038 16.644C73.2798 16.6613 74.0078 16.67 74.7878 16.67C75.4811 16.67 76.1658 16.6613 76.8418 16.644C77.5178 16.6267 78.0725 16.6093 78.5058 16.592ZM87.0925 16.514L93.4105 32.816C93.6705 33.44 93.9478 33.8733 94.2425 34.116C94.5545 34.3413 94.8405 34.4627 95.1005 34.48V35C94.6498 34.9653 94.1038 34.948 93.4625 34.948C92.8385 34.9307 92.1972 34.922 91.5385 34.922C90.7758 34.922 90.0652 34.9307 89.4065 34.948C88.7478 34.948 88.2105 34.9653 87.7945 35V34.48C88.6785 34.4453 89.2418 34.298 89.4845 34.038C89.7272 33.7607 89.6752 33.18 89.3285 32.296L84.7525 19.946L85.2205 19.374L81.0605 30.164C80.7312 31.0307 80.5318 31.7413 80.4625 32.296C80.3932 32.8507 80.4365 33.284 80.5925 33.596C80.7485 33.908 81.0085 34.1333 81.3725 34.272C81.7365 34.3933 82.1872 34.4627 82.7245 34.48V35C82.1698 34.9653 81.6325 34.948 81.1125 34.948C80.5925 34.9307 80.0725 34.922 79.5525 34.922C79.1712 34.922 78.8072 34.9307 78.4605 34.948C78.1312 34.948 77.8365 34.9653 77.5765 35V34.48C77.9578 34.3933 78.3305 34.168 78.6945 33.804C79.0758 33.44 79.4398 32.8073 79.7865 31.906L85.7405 16.514C85.9485 16.5313 86.1738 16.54 86.4165 16.54C86.6592 16.54 86.8845 16.5313 87.0925 16.514ZM89.3545 27.512V28.032H81.6065L81.8665 27.512H89.3545ZM115.556 16.592V17.112C115.001 17.1293 114.576 17.1987 114.282 17.32C113.987 17.424 113.788 17.632 113.684 17.944C113.597 18.2387 113.554 18.7067 113.554 19.348V32.244C113.554 32.868 113.606 33.336 113.71 33.648C113.814 33.96 114.004 34.168 114.282 34.272C114.576 34.376 115.001 34.4453 115.556 34.48V35C115.105 34.9653 114.533 34.948 113.84 34.948C113.146 34.9307 112.444 34.922 111.734 34.922C110.954 34.922 110.217 34.9307 109.524 34.948C108.848 34.948 108.302 34.9653 107.886 35V34.48C108.475 34.4453 108.917 34.376 109.212 34.272C109.524 34.168 109.732 33.96 109.836 33.648C109.94 33.336 109.992 32.868 109.992 32.244V18.1L110.174 18.126L103.726 35.078H103.31L96.4458 18.256V31.152C96.4458 31.984 96.4978 32.634 96.6018 33.102C96.7058 33.5527 96.9311 33.882 97.2778 34.09C97.6418 34.2807 98.1878 34.4107 98.9158 34.48V35C98.5865 34.9653 98.1618 34.948 97.6418 34.948C97.1218 34.9307 96.6278 34.922 96.1598 34.922C95.7438 34.922 95.3191 34.9307 94.8858 34.948C94.4698 34.948 94.1231 34.9653 93.8458 35V34.48C94.4178 34.4107 94.8425 34.2807 95.1198 34.09C95.4145 33.8993 95.6051 33.5873 95.6918 33.154C95.7958 32.7207 95.8478 32.1227 95.8478 31.36V19.348C95.8478 18.7067 95.7958 18.2387 95.6918 17.944C95.6051 17.632 95.4145 17.424 95.1198 17.32C94.8425 17.1987 94.4178 17.1293 93.8458 17.112V16.592C94.1231 16.6093 94.4698 16.6267 94.8858 16.644C95.3191 16.6613 95.7438 16.67 96.1598 16.67C96.8011 16.67 97.4251 16.6613 98.0318 16.644C98.6385 16.6267 99.1758 16.6093 99.6438 16.592L105.234 30.554L104.662 31.022L110.096 16.67C110.356 16.67 110.624 16.67 110.902 16.67C111.196 16.67 111.474 16.67 111.734 16.67C112.444 16.67 113.146 16.6613 113.84 16.644C114.533 16.6267 115.105 16.6093 115.556 16.592ZM124.847 16.228C126.615 16.228 128.167 16.6007 129.501 17.346C130.836 18.0913 131.867 19.166 132.595 20.57C133.341 21.9567 133.713 23.6467 133.713 25.64C133.713 27.5813 133.332 29.28 132.569 30.736C131.824 32.192 130.775 33.3273 129.423 34.142C128.089 34.9567 126.555 35.364 124.821 35.364C123.053 35.364 121.502 34.9913 120.167 34.246C118.833 33.5007 117.793 32.426 117.047 31.022C116.319 29.618 115.955 27.928 115.955 25.952C115.955 24.0107 116.337 22.312 117.099 20.856C117.862 19.4 118.911 18.2647 120.245 17.45C121.58 16.6353 123.114 16.228 124.847 16.228ZM124.743 16.696C123.721 16.696 122.828 17.086 122.065 17.866C121.32 18.646 120.739 19.7207 120.323 21.09C119.907 22.4593 119.699 24.0453 119.699 25.848C119.699 27.6853 119.933 29.2887 120.401 30.658C120.869 32.01 121.502 33.0587 122.299 33.804C123.097 34.532 123.972 34.896 124.925 34.896C125.948 34.896 126.832 34.506 127.577 33.726C128.34 32.946 128.929 31.8713 129.345 30.502C129.761 29.1153 129.969 27.5293 129.969 25.744C129.969 23.8893 129.735 22.286 129.267 20.934C128.799 19.582 128.167 18.542 127.369 17.814C126.589 17.0687 125.714 16.696 124.743 16.696ZM150.966 16.592V17.112C150.412 17.164 149.987 17.294 149.692 17.502C149.398 17.6927 149.198 18.0047 149.094 18.438C149.008 18.854 148.964 19.452 148.964 20.232V35.078C148.808 35.0607 148.635 35.052 148.444 35.052C148.271 35.052 148.08 35.0607 147.872 35.078L136.718 19.92V31.152C136.718 31.984 136.77 32.634 136.874 33.102C136.978 33.5527 137.204 33.882 137.55 34.09C137.914 34.2807 138.46 34.4107 139.188 34.48V35C138.859 34.9653 138.434 34.948 137.914 34.948C137.394 34.9307 136.9 34.922 136.432 34.922C136.016 34.922 135.592 34.9307 135.158 34.948C134.742 34.948 134.396 34.9653 134.118 35V34.48C134.69 34.4107 135.115 34.2807 135.392 34.09C135.687 33.8993 135.878 33.5873 135.964 33.154C136.068 32.7207 136.12 32.1227 136.12 31.36V19.348C136.12 18.7067 136.068 18.2387 135.964 17.944C135.878 17.632 135.687 17.424 135.392 17.32C135.115 17.1987 134.69 17.1293 134.118 17.112V16.592C134.396 16.6093 134.742 16.6267 135.158 16.644C135.592 16.6613 136.016 16.67 136.432 16.67C136.831 16.67 137.221 16.6613 137.602 16.644C137.984 16.6267 138.322 16.6093 138.616 16.592L148.366 29.566V20.44C148.366 19.5907 148.314 18.9407 148.21 18.49C148.106 18.0393 147.881 17.71 147.534 17.502C147.188 17.294 146.642 17.164 145.896 17.112V16.592C146.226 16.6093 146.65 16.6267 147.17 16.644C147.708 16.6613 148.202 16.67 148.652 16.67C149.086 16.67 149.51 16.6613 149.926 16.644C150.36 16.6267 150.706 16.6093 150.966 16.592ZM158.866 16.592C162.194 16.592 164.655 17.372 166.25 18.932C167.862 20.4747 168.668 22.6933 168.668 25.588C168.668 27.4773 168.269 29.1327 167.472 30.554C166.692 31.958 165.556 33.05 164.066 33.83C162.575 34.61 160.764 35 158.632 35C158.372 35 158.016 34.9913 157.566 34.974C157.132 34.9567 156.673 34.948 156.188 34.948C155.72 34.9307 155.286 34.922 154.888 34.922C154.177 34.922 153.484 34.9307 152.808 34.948C152.132 34.948 151.577 34.9653 151.144 35V34.48C151.716 34.4453 152.14 34.376 152.418 34.272C152.712 34.168 152.903 33.96 152.99 33.648C153.094 33.336 153.146 32.868 153.146 32.244V19.348C153.146 18.7067 153.094 18.2387 152.99 17.944C152.903 17.632 152.712 17.424 152.418 17.32C152.14 17.1987 151.716 17.1293 151.144 17.112V16.592C151.577 16.6093 152.132 16.6353 152.808 16.67C153.484 16.6873 154.16 16.6873 154.836 16.67C155.46 16.6527 156.162 16.6353 156.942 16.618C157.722 16.6007 158.363 16.592 158.866 16.592ZM158.632 17.06C157.834 17.06 157.314 17.2073 157.072 17.502C156.829 17.7967 156.708 18.3947 156.708 19.296V32.296C156.708 33.1973 156.829 33.7953 157.072 34.09C157.332 34.3847 157.86 34.532 158.658 34.532C160.27 34.532 161.526 34.194 162.428 33.518C163.346 32.8247 163.988 31.8193 164.352 30.502C164.733 29.1847 164.924 27.5813 164.924 25.692C164.924 23.7507 164.716 22.1473 164.3 20.882C163.901 19.5993 163.242 18.646 162.324 18.022C161.405 17.3807 160.174 17.06 158.632 17.06Z" fill="#171717"/>
<path d="M22.009 42.3386C11.8837 42.3386 3.67561 34.1306 3.67561 24.0053C3.67561 13.8801 11.8837 5.67203 22.009 5.67203C32.1341 5.67203 40.3423 13.8801 40.3423 24.0053C40.3423 34.1306 32.1341 42.3386 22.009 42.3386ZM17.4256 18.5054L12.8423 23.0886L22.0075 32.2553L31.1757 23.0886L26.5923 18.5054H17.4256Z" fill="#404040"/>
</svg>
