<svg width="170" height="48" viewBox="0 0 170 48" fill="none" xmlns="http://www.w3.org/2000/svg">
<path d="M67.313 28.0806C67.313 29.1385 67.0404 30.054 66.4951 30.8271C65.958 31.6003 65.2052 32.1943 64.2368 32.6094C63.2684 33.0163 62.1576 33.2197 60.9043 33.2197C60.5544 33.2197 60.123 33.1953 59.6104 33.1465C59.1058 33.1058 58.4303 32.9837 57.584 32.7803C56.7458 32.5768 55.8709 32.2757 54.9595 31.877V27.7266C55.814 28.2555 56.6522 28.695 57.4741 29.0449C58.3042 29.3949 59.1912 29.5698 60.1353 29.5698C61.006 29.5698 61.5675 29.4274 61.8198 29.1426C62.0802 28.8496 62.2104 28.577 62.2104 28.3247C62.2104 27.869 61.9907 27.4865 61.5513 27.1772C61.1118 26.8599 60.473 26.5343 59.6348 26.2007C58.707 25.8101 57.8932 25.3869 57.1934 24.9312C56.4935 24.4673 55.9198 23.8895 55.4722 23.1978C55.0327 22.506 54.813 21.6882 54.813 20.7441C54.813 19.8327 55.0368 19.0107 55.4844 18.2783C55.932 17.5378 56.6156 16.9478 57.5352 16.5083C58.4548 16.0688 59.5778 15.8491 60.9043 15.8491C61.8483 15.8491 62.7191 15.9427 63.5166 16.1299C64.3223 16.3089 64.9855 16.5124 65.5063 16.7402C66.0272 16.9681 66.3853 17.1471 66.5806 17.2773V21.2446C65.8888 20.7482 65.1157 20.3047 64.2612 19.9141C63.4149 19.5234 62.5075 19.3281 61.5391 19.3281C60.9043 19.3281 60.4445 19.4502 60.1597 19.6943C59.8748 19.9385 59.7324 20.2396 59.7324 20.5977C59.7324 20.9313 59.8748 21.2202 60.1597 21.4644C60.4445 21.7085 60.9531 22.0055 61.6855 22.3555C62.9876 22.9658 64.0293 23.5151 64.8105 24.0034C65.5918 24.4917 66.2021 25.0573 66.6416 25.7002C67.0892 26.335 67.313 27.1284 67.313 28.0806ZM96.6968 16.0811L89.3726 33.2197H86.4185L82.0239 23.2466L77.5195 33.2197H74.541L67.3633 16.0811H72.6489L76.1646 25.4561L80.1929 16.0811H83.8428L87.7979 25.4561L91.4722 16.0811H96.6968ZM114.691 33H109.467L108.087 29.5698H100.739L99.335 33H94.1104L101.593 16.0811H107.233L114.691 33ZM106.916 26.6279L104.438 20.4512L101.935 26.6279H106.916ZM130.086 21.4033C130.086 22.0299 129.976 22.6444 129.756 23.2466C129.545 23.8407 129.199 24.3981 128.719 24.9189C128.239 25.4316 127.588 25.8507 126.766 26.1763C125.952 26.4937 124.992 26.6523 123.885 26.6523H120.54V33H115.438V16.0811H123.885C124.992 16.0811 125.952 16.2438 126.766 16.5693C127.588 16.8949 128.239 17.318 128.719 17.8389C129.199 18.3597 129.545 18.9253 129.756 19.5356C129.976 20.146 130.086 20.7686 130.086 21.4033ZM124.886 21.4277C124.886 20.6221 124.646 20.0728 124.166 19.7798C123.694 19.4787 122.843 19.3281 121.614 19.3281H120.54V23.4053H121.639C122.485 23.4053 123.136 23.3524 123.592 23.2466C124.048 23.1408 124.377 22.9455 124.581 22.6606C124.784 22.3758 124.886 21.9648 124.886 21.4277ZM148.813 24.8457C148.813 26.5791 148.496 27.9707 147.861 29.0205C147.234 30.0703 146.494 30.9207 145.639 31.5718C144.427 32.5239 142.73 33 140.549 33H131.418V16.0811H138.449C139.507 16.0811 140.41 16.138 141.159 16.252C141.916 16.3577 142.596 16.5124 143.198 16.7158C143.8 16.9111 144.313 17.1349 144.736 17.3872C145.159 17.6313 145.537 17.8958 145.871 18.1807C146.449 18.6527 146.953 19.2101 147.385 19.853C147.824 20.4959 148.17 21.2406 148.422 22.0869C148.683 22.9333 148.813 23.8529 148.813 24.8457ZM143.625 24.626C143.625 23.2507 143.361 22.1805 142.832 21.4155C142.311 20.6424 141.68 20.1257 140.939 19.8652C140.207 19.6048 139.458 19.4746 138.693 19.4746H136.521V29.4966H138.693C140.028 29.4966 141.184 29.1792 142.16 28.5444C143.137 27.9097 143.625 26.6035 143.625 24.626ZM168.578 24.5283C168.578 26.1071 168.211 27.5597 167.479 28.8862C166.755 30.2127 165.672 31.2666 164.232 32.0479C162.792 32.8291 161.038 33.2197 158.971 33.2197C156.879 33.2197 155.109 32.8128 153.661 31.999C152.212 31.1852 151.134 30.1151 150.426 28.7886C149.726 27.4621 149.376 26.042 149.376 24.5283C149.376 23.0065 149.726 21.5864 150.426 20.2681C151.126 18.9416 152.2 17.8755 153.648 17.0698C155.105 16.256 156.879 15.8491 158.971 15.8491C160.533 15.8491 161.925 16.0811 163.146 16.5449C164.374 17.0088 165.383 17.6395 166.173 18.437C166.962 19.2264 167.56 20.1501 167.967 21.208C168.374 22.2578 168.578 23.3646 168.578 24.5283ZM163.377 24.5283C163.377 23.8936 163.284 23.3158 163.097 22.7949C162.91 22.266 162.625 21.8102 162.242 21.4277C161.868 21.0371 161.408 20.736 160.863 20.5244C160.318 20.3047 159.687 20.1948 158.971 20.1948C157.604 20.1948 156.529 20.5936 155.748 21.3911C154.967 22.1886 154.576 23.2344 154.576 24.5283C154.576 25.8223 154.967 26.8721 155.748 27.6777C156.537 28.4753 157.612 28.874 158.971 28.874C159.907 28.874 160.704 28.6909 161.363 28.3247C162.022 27.9504 162.523 27.4377 162.865 26.7866C163.207 26.1274 163.377 25.3747 163.377 24.5283Z" fill="#171717"/>
<path d="M31.5467 6.20367L28.9538 8.79639L33.1575 13H23.8337V16.6667H33.1575L28.9538 20.8703L31.5467 23.463L40.1764 14.8334L31.5467 6.20367ZM12.8336 23.0833C17.39 23.0833 21.0837 19.3897 21.0837 14.8334C21.0837 10.277 17.39 6.58336 12.8336 6.58336C8.27726 6.58336 4.58361 10.277 4.58361 14.8334C4.58361 19.3897 8.27726 23.0833 12.8336 23.0833ZM10.843 35L15.0466 39.2037L12.4539 41.7964L3.82422 33.1667L12.4539 24.537L15.0466 27.1297L10.843 31.3333H20.167V35H10.843ZM25.667 25.8333C24.6545 25.8333 23.8337 26.6541 23.8337 27.6667V38.6667C23.8337 39.6792 24.6545 40.5 25.667 40.5H36.667C37.6794 40.5 38.5004 39.6792 38.5004 38.6667V27.6667C38.5004 26.6541 37.6794 25.8333 36.667 25.8333H25.667Z" fill="#404040"/>
</svg>
