<svg width="156" height="48" viewBox="0 0 156 48" fill="none" xmlns="http://www.w3.org/2000/svg">
<path d="M45.8652 19.729L48.8438 28.5547L51.6636 19.729H49.9668V16.604H56.5952V19.729H54.8984L57.9136 28.5547L60.8188 19.729H58.9634V16.604H66.3486V19.729H64.3467L59.2441 35.0977H55.8384L52.9453 26.6992L50.1987 35.0977H46.6709L41.4219 19.729H39.4688V16.604H47.7695V19.729H45.8652ZM75.4077 27.2974V32.0459H77.4829V35H71.3306V33.999C70.1668 34.7965 69.0031 35.1953 67.8394 35.1953C66.4315 35.1953 65.3044 34.8332 64.458 34.1089C63.6117 33.3846 63.1885 32.408 63.1885 31.1792C63.1885 29.8771 63.6605 28.8354 64.6045 28.0542C65.5566 27.2648 66.818 26.8701 68.3887 26.8701C68.9339 26.8701 69.4181 26.9312 69.8413 27.0532C70.2726 27.1672 70.769 27.3665 71.3306 27.6514V26.626C71.3306 25.9749 71.1271 25.4541 70.7202 25.0635C70.3133 24.6729 69.703 24.4775 68.8892 24.4775C68.0021 24.4775 67.2168 24.8193 66.5332 25.5029L63.2373 24.9048C64.2383 22.8866 66.3053 21.8774 69.4385 21.8774C71.5869 21.8774 73.1169 22.321 74.0283 23.208C74.9479 24.0869 75.4077 25.45 75.4077 27.2974ZM68.7549 32.644C69.4873 32.644 70.3459 32.2046 71.3306 31.3257V30.1782C70.4517 29.6086 69.646 29.3237 68.9136 29.3237C68.3276 29.3237 67.88 29.4621 67.5708 29.7388C67.2616 30.0155 67.1069 30.4102 67.1069 30.9229C67.1069 32.0703 67.6562 32.644 68.7549 32.644ZM91.1074 26.8213V32.0459H93.0361V35H87.0059V27.1509C87.0059 26.5487 86.9123 26.1133 86.7251 25.8447C86.5461 25.568 86.2409 25.4297 85.8096 25.4297C85.0283 25.4297 84.243 25.7104 83.4536 26.272V32.0459H85.4556V35H77.4355V32.0459H79.3887V25.1733H77.4355V22.1704H83.4536V23.3789C84.6743 22.4593 85.9276 21.9995 87.2134 21.9995C88.491 21.9995 89.4595 22.4064 90.1187 23.2202C90.7778 24.0259 91.1074 25.2262 91.1074 26.8213ZM112.631 19.729H110.263V16.604H118.479V19.729H115.915V35.1221H111.838L103.879 21.4746V31.875H106.186V35H98.1294V31.875H100.607V19.729H98.1294V16.604H105.856L112.631 28.103V19.729ZM129.344 27.2974V32.0459H131.419V35H125.267V33.999C124.103 34.7965 122.94 35.1953 121.776 35.1953C120.368 35.1953 119.241 34.8332 118.395 34.1089C117.548 33.3846 117.125 32.408 117.125 31.1792C117.125 29.8771 117.597 28.8354 118.541 28.0542C119.493 27.2648 120.755 26.8701 122.325 26.8701C122.87 26.8701 123.355 26.9312 123.778 27.0532C124.209 27.1672 124.706 27.3665 125.267 27.6514V26.626C125.267 25.9749 125.064 25.4541 124.657 25.0635C124.25 24.6729 123.639 24.4775 122.826 24.4775C121.939 24.4775 121.153 24.8193 120.47 25.5029L117.174 24.9048C118.175 22.8866 120.242 21.8774 123.375 21.8774C125.523 21.8774 127.053 22.321 127.965 23.208C128.884 24.0869 129.344 25.45 129.344 27.2974ZM122.691 32.644C123.424 32.644 124.282 32.2046 125.267 31.3257V30.1782C124.388 29.6086 123.583 29.3237 122.85 29.3237C122.264 29.3237 121.817 29.4621 121.507 29.7388C121.198 30.0155 121.043 30.4102 121.043 30.9229C121.043 32.0703 121.593 32.644 122.691 32.644ZM137.646 18.5205C137.646 19.1715 137.423 19.7127 136.975 20.144C136.536 20.5672 136.011 20.7788 135.4 20.7788C134.782 20.7788 134.249 20.5591 133.801 20.1196C133.362 19.672 133.142 19.139 133.142 18.5205C133.142 17.9102 133.362 17.3853 133.801 16.9458C134.249 16.4982 134.782 16.2744 135.4 16.2744C136.011 16.2744 136.536 16.4982 136.975 16.9458C137.423 17.3853 137.646 17.9102 137.646 18.5205ZM139.294 32.0459V35H131.372V32.0459H133.325V25.1733H131.372V22.1704H137.39V32.0459H139.294ZM152.992 26.8213V32.0459H154.921V35H148.891V27.1509C148.891 26.5487 148.797 26.1133 148.61 25.8447C148.431 25.568 148.126 25.4297 147.694 25.4297C146.913 25.4297 146.128 25.7104 145.338 26.272V32.0459H147.34V35H139.32V32.0459H141.273V25.1733H139.32V22.1704H145.338V23.3789C146.559 22.4593 147.812 21.9995 149.098 21.9995C150.376 21.9995 151.344 22.4064 152.003 23.2202C152.663 24.0259 152.992 25.2262 152.992 26.8213Z" fill="#171717"/>
<path d="M2.49999 22.1667L2.50098 7.5H-0.592771L-4.83334 8.63626V12.9056L-1.16668 11.9183V22.1667H2.49999ZM26.3333 16.6667L19 7.5L11.6667 16.6667H17.1667V40.5H20.8333V16.6667H26.3333ZM0.666656 32.25C-0.345857 32.25 -1.16668 31.4292 -1.16668 30.4167C-1.16668 29.4041 -0.345857 28.5833 0.666656 28.5833C1.67917 28.5833 2.49999 29.4041 2.49999 30.4167C2.49999 31.4292 1.67917 32.25 0.666656 32.25ZM5.38364 33.2466C5.88084 32.4198 6.16666 31.4516 6.16666 30.4167C6.16666 27.379 3.70421 24.9167 0.666656 24.9167C-2.3709 24.9167 -4.83334 27.379 -4.83334 30.4167C-4.83334 33.1108 -2.89623 35.3526 -0.338817 35.825L-3.03794 40.5H1.19596L5.38364 33.2466Z" fill="#404040"/>
</svg>
