<svg width="170" height="48" viewBox="0 0 170 48" fill="none" xmlns="http://www.w3.org/2000/svg">
<path d="M7.62719 43V10.3438H13.8059L18.4446 34.2051L22.8049 10.3438H29.0207V43H24.5862V30.8281L24.7717 19.6582L20.3743 42.8516H16.4221L11.8391 19.6582L12.0247 30.8281V43H7.62719ZM29.728 43L34.3853 10.3438H40.9536L45.9077 43H41.2691L40.4898 37.1738H35.2202L34.5152 43H29.728ZM35.7027 33.1846H39.9702L37.7808 16.7822H37.7066L35.7027 33.1846ZM46.5965 43V10.3438H51.5691V25.373L56.5418 10.3438H61.6814L56.2635 26.4492L62.1082 43H56.8572L51.6063 27.748V43H46.5965ZM62.5372 43V10.3438H70.7569C72.4639 10.3438 73.738 10.6777 74.5792 11.3457C75.4203 12.0137 75.9708 12.9909 76.2305 14.2773C76.5027 15.5638 76.6388 17.1348 76.6388 18.9902C76.6388 20.9076 76.4408 22.4167 76.045 23.5176C75.6615 24.6061 74.8699 25.3359 73.67 25.707C74.239 25.806 74.7152 26.041 75.0987 26.4121C75.4822 26.7708 75.7914 27.3027 76.0264 28.0078C76.2615 28.7005 76.4285 29.5973 76.5274 30.6982C76.6388 31.7868 76.6944 33.1227 76.6944 34.7061C76.6944 34.8298 76.6944 35.1761 76.6944 35.7451C76.6944 36.3141 76.6944 36.9883 76.6944 37.7676C76.7068 38.5345 76.7192 39.3014 76.7315 40.0684C76.7439 40.8353 76.7624 41.4909 76.7872 42.0352C76.8119 42.5794 76.8429 42.901 76.88 43H71.9073C71.8702 42.9382 71.8393 42.6227 71.8145 42.0537C71.8022 41.4723 71.7836 40.7363 71.7589 39.8457C71.7465 38.9551 71.7341 37.9964 71.7218 36.9697C71.7218 35.943 71.7218 34.9349 71.7218 33.9453C71.7218 32.9434 71.7218 32.0589 71.7218 31.292C71.7218 30.3148 71.6475 29.5788 71.4991 29.084C71.363 28.5768 71.1033 28.2243 70.7198 28.0264C70.3487 27.8285 69.8106 27.7109 69.1055 27.6738L67.5098 27.5811V43H62.5372ZM67.5284 23.7217H69.5138C70.1199 23.7217 70.5776 23.5856 70.8868 23.3135C71.2084 23.0413 71.4249 22.5404 71.5362 21.8105C71.6599 21.0807 71.7218 20.0293 71.7218 18.6562V18.4521C71.7218 17.3018 71.6661 16.4173 71.5548 15.7988C71.4434 15.1803 71.2084 14.7536 70.8497 14.5186C70.5033 14.2835 69.9591 14.166 69.2169 14.166H67.5284V23.7217ZM85.5287 43.3711C83.834 43.3711 82.4486 43.0124 81.3724 42.2949C80.3086 41.5775 79.5231 40.5137 79.016 39.1035C78.5088 37.6934 78.2552 35.9492 78.2552 33.8711V18.9346C78.2552 17.0544 78.5026 15.4463 78.9974 14.1104C79.4922 12.7744 80.2777 11.7477 81.3539 11.0303C82.43 10.3128 83.8402 9.9541 85.5843 9.9541C86.8955 9.9541 88.0026 10.1582 88.9056 10.5664C89.8086 10.9746 90.5384 11.5684 91.0951 12.3477C91.6517 13.1146 92.0537 14.0547 92.3011 15.168C92.5609 16.2689 92.6908 17.5244 92.6908 18.9346V33.8711C92.6908 35.9492 92.4434 37.6934 91.9486 39.1035C91.4662 40.5137 90.6992 41.5775 89.6478 42.2949C88.5964 43.0124 87.2233 43.3711 85.5287 43.3711ZM85.5287 39.0664C86.1472 39.0664 86.611 38.8809 86.9203 38.5098C87.2295 38.1387 87.4336 37.5758 87.5326 36.8213C87.6439 36.0544 87.6996 35.0895 87.6996 33.9268V18.7119C87.6996 17.2894 87.5635 16.1947 87.2914 15.4277C87.0316 14.6484 86.4626 14.2588 85.5843 14.2588C84.6813 14.2588 84.069 14.6361 83.7474 15.3906C83.4258 16.1328 83.265 17.2337 83.265 18.6934V33.9268C83.265 35.1143 83.3145 36.0915 83.4134 36.8584C83.5248 37.613 83.7412 38.1696 84.0629 38.5283C84.3968 38.887 84.8854 39.0664 85.5287 39.0664ZM99.4863 43V10.3438H104.459V23.5547H108.912V10.3438H113.885V43H108.912V27.8223H104.459V43H99.4863ZM114.573 43L119.231 10.3438H125.799L130.753 43H126.114L125.335 37.1738H120.066L119.361 43H114.573ZM120.548 33.1846H124.816L122.626 16.7822H122.552L120.548 33.1846ZM131.442 43V10.3438H139.662C141.369 10.3438 142.643 10.6777 143.484 11.3457C144.325 12.0137 144.875 12.9909 145.135 14.2773C145.407 15.5638 145.543 17.1348 145.543 18.9902C145.543 20.9076 145.346 22.4167 144.95 23.5176C144.566 24.6061 143.775 25.3359 142.575 25.707C143.144 25.806 143.62 26.041 144.003 26.4121C144.387 26.7708 144.696 27.3027 144.931 28.0078C145.166 28.7005 145.333 29.5973 145.432 30.6982C145.543 31.7868 145.599 33.1227 145.599 34.7061C145.599 34.8298 145.599 35.1761 145.599 35.7451C145.599 36.3141 145.599 36.9883 145.599 37.7676C145.611 38.5345 145.624 39.3014 145.636 40.0684C145.649 40.8353 145.667 41.4909 145.692 42.0352C145.717 42.5794 145.748 42.901 145.785 43H140.812C140.775 42.9382 140.744 42.6227 140.719 42.0537C140.707 41.4723 140.688 40.7363 140.664 39.8457C140.651 38.9551 140.639 37.9964 140.626 36.9697C140.626 35.943 140.626 34.9349 140.626 33.9453C140.626 32.9434 140.626 32.0589 140.626 31.292C140.626 30.3148 140.552 29.5788 140.404 29.084C140.268 28.5768 140.008 28.2243 139.624 28.0264C139.253 27.8285 138.715 27.7109 138.01 27.6738L136.415 27.5811V43H131.442ZM136.433 23.7217H138.418C139.025 23.7217 139.482 23.5856 139.791 23.3135C140.113 23.0413 140.33 22.5404 140.441 21.8105C140.565 21.0807 140.626 20.0293 140.626 18.6562V18.4521C140.626 17.3018 140.571 16.4173 140.459 15.7988C140.348 15.1803 140.113 14.7536 139.754 14.5186C139.408 14.2835 138.864 14.166 138.122 14.166H136.433V23.7217ZM147.568 43V10.3438H154.897C156.555 10.3438 157.885 10.6777 158.886 11.3457C159.888 12.0013 160.612 12.9538 161.057 14.2031C161.515 15.4525 161.744 16.9616 161.744 18.7305L161.762 33.4629C161.762 35.6029 161.527 37.3841 161.057 38.8066C160.6 40.2168 159.858 41.2682 158.831 41.9609C157.804 42.6536 156.437 43 154.73 43H147.568ZM152.541 39.1406H154.174C154.755 39.1406 155.237 39.0231 155.621 38.7881C156.017 38.5531 156.307 38.1387 156.493 37.5449C156.691 36.9388 156.79 36.0853 156.79 34.9844L156.771 18.8604C156.771 17.1904 156.567 15.9906 156.159 15.2607C155.751 14.5309 155.033 14.166 154.007 14.166H152.541V39.1406Z" fill="#171717"/>
</svg>
