<svg width="170" height="48" viewBox="0 0 170 48" fill="none" xmlns="http://www.w3.org/2000/svg">
<path d="M88.9622 33H84.8743L83.2493 28.7725H75.8099L74.2738 33H70.2874L77.5364 14.3887H81.5101L88.9622 33ZM82.0433 25.6367L79.4788 18.7305L76.9652 25.6367H82.0433ZM89.3827 17.6895V14.3887H92.9501V17.6895H89.3827ZM89.3827 33V19.5176H92.9501V33H89.3827ZM98.4741 33H94.9067V19.5176H98.2202V21.4346C98.7872 20.529 99.295 19.9323 99.7436 19.6445C100.201 19.3568 100.717 19.2129 101.292 19.2129C102.105 19.2129 102.888 19.4372 103.641 19.8857L102.537 22.9961C101.936 22.6068 101.377 22.4121 100.861 22.4121C100.361 22.4121 99.9383 22.5518 99.5913 22.8311C99.2442 23.1019 98.9692 23.597 98.7661 24.3164C98.5714 25.0358 98.4741 26.5423 98.4741 28.8359V33ZM121.24 26.1572L124.883 27.3125C124.325 29.3438 123.394 30.8545 122.09 31.8447C120.795 32.8265 119.149 33.3174 117.152 33.3174C114.681 33.3174 112.649 32.4753 111.058 30.791C109.467 29.0983 108.671 26.7878 108.671 23.8594C108.671 20.7617 109.471 18.3581 111.071 16.6484C112.67 14.9303 114.774 14.0713 117.38 14.0713C119.657 14.0713 121.506 14.7441 122.928 16.0898C123.775 16.8854 124.409 18.028 124.833 19.5176L121.113 20.4062C120.893 19.4414 120.432 18.6797 119.729 18.1211C119.035 17.5625 118.189 17.2832 117.19 17.2832C115.81 17.2832 114.689 17.7783 113.826 18.7686C112.971 19.7588 112.544 21.3626 112.544 23.5801C112.544 25.9329 112.967 27.6087 113.813 28.6074C114.659 29.6061 115.76 30.1055 117.114 30.1055C118.113 30.1055 118.972 29.7881 119.691 29.1533C120.41 28.5186 120.927 27.5199 121.24 26.1572ZM129.201 23.6309L125.964 23.0469C126.328 21.7435 126.954 20.7786 127.843 20.1523C128.732 19.526 130.052 19.2129 131.804 19.2129C133.395 19.2129 134.58 19.4033 135.359 19.7842C136.137 20.1566 136.683 20.6348 136.996 21.2188C137.318 21.7943 137.479 22.8564 137.479 24.4053L137.441 28.5693C137.441 29.7542 137.496 30.6302 137.606 31.1973C137.724 31.7559 137.94 32.3568 138.253 33H134.724C134.631 32.763 134.516 32.4118 134.381 31.9463C134.322 31.7347 134.279 31.5951 134.254 31.5273C133.645 32.1198 132.993 32.5641 132.299 32.8604C131.605 33.1566 130.864 33.3047 130.077 33.3047C128.689 33.3047 127.593 32.9281 126.789 32.1748C125.994 31.4215 125.596 30.4694 125.596 29.3184C125.596 28.5566 125.778 27.8796 126.142 27.2871C126.506 26.6862 127.013 26.2292 127.665 25.916C128.325 25.5944 129.273 25.3151 130.509 25.0781C132.176 24.765 133.331 24.473 133.975 24.2021V23.8467C133.975 23.1611 133.805 22.6745 133.467 22.3867C133.128 22.0905 132.489 21.9424 131.55 21.9424C130.915 21.9424 130.42 22.0693 130.065 22.3232C129.709 22.5687 129.421 23.0046 129.201 23.6309ZM133.975 26.5254C133.518 26.6777 132.794 26.8597 131.804 27.0713C130.814 27.2829 130.166 27.4902 129.861 27.6934C129.396 28.0234 129.163 28.4424 129.163 28.9502C129.163 29.4495 129.349 29.8812 129.722 30.2451C130.094 30.609 130.568 30.791 131.144 30.791C131.787 30.791 132.401 30.5794 132.984 30.1562C133.416 29.8346 133.7 29.4411 133.835 28.9756C133.928 28.6709 133.975 28.0911 133.975 27.2363V26.5254ZM142.863 33H139.296V19.5176H142.609V21.4346C143.176 20.529 143.684 19.9323 144.132 19.6445C144.59 19.3568 145.106 19.2129 145.681 19.2129C146.494 19.2129 147.277 19.4372 148.03 19.8857L146.925 22.9961C146.325 22.6068 145.766 22.4121 145.25 22.4121C144.75 22.4121 144.327 22.5518 143.98 22.8311C143.633 23.1019 143.358 23.597 143.155 24.3164C142.96 25.0358 142.863 26.5423 142.863 28.8359V33Z" fill="#171717"/>
<path d="M34.8333 38.6667H9.16666V40.5C9.16666 41.5126 8.34584 42.3333 7.33332 42.3333H5.49999C4.48748 42.3333 3.66666 41.5126 3.66666 40.5V24L8.27445 11.7126C8.81112 10.2815 10.1792 9.33334 11.7077 9.33334H32.2923C33.8208 9.33334 35.1888 10.2815 35.7256 11.7126L40.3333 24V40.5C40.3333 41.5126 39.5125 42.3333 38.5 42.3333H36.6667C35.6541 42.3333 34.8333 41.5126 34.8333 40.5V38.6667ZM7.58266 24H36.4173L32.2923 13H11.7077L7.58266 24ZM11.9167 33.1667C13.4354 33.1667 14.6667 31.9354 14.6667 30.4167C14.6667 28.8979 13.4354 27.6667 11.9167 27.6667C10.3979 27.6667 9.16666 28.8979 9.16666 30.4167C9.16666 31.9354 10.3979 33.1667 11.9167 33.1667ZM32.0833 33.1667C33.6021 33.1667 34.8333 31.9354 34.8333 30.4167C34.8333 28.8979 33.6021 27.6667 32.0833 27.6667C30.5646 27.6667 29.3333 28.8979 29.3333 30.4167C29.3333 31.9354 30.5646 33.1667 32.0833 33.1667Z" fill="#404040"/>
</svg>
