<svg width="170" height="48" viewBox="0 0 170 48" fill="none" xmlns="http://www.w3.org/2000/svg">
<path d="M50.8942 34V16.5455H57.7806C59.0988 16.5455 60.2238 16.7812 61.1556 17.2528C62.0931 17.7187 62.8062 18.3807 63.2948 19.2386C63.7891 20.0909 64.0363 21.0937 64.0363 22.2472C64.0363 23.4062 63.7863 24.4034 63.2863 25.2386C62.7863 26.0682 62.0618 26.7045 61.113 27.1477C60.1698 27.5909 59.0278 27.8125 57.6868 27.8125H53.0761V24.8466H57.0903C57.7948 24.8466 58.38 24.75 58.8459 24.5568C59.3118 24.3636 59.6584 24.0739 59.8857 23.6875C60.1187 23.3011 60.2351 22.821 60.2351 22.2472C60.2351 21.6676 60.1187 21.179 59.8857 20.7812C59.6584 20.3835 59.309 20.0824 58.8374 19.8778C58.3715 19.6676 57.7834 19.5625 57.0732 19.5625H54.5846V34H50.8942ZM60.3204 26.0568L64.6584 34H60.5846L56.3403 26.0568H60.3204ZM70.8399 34.2557C69.516 34.2557 68.3711 33.9744 67.4052 33.4119C66.445 32.8437 65.7035 32.054 65.1808 31.0426C64.6581 30.0256 64.3967 28.8466 64.3967 27.5057C64.3967 26.1534 64.6581 24.9716 65.1808 23.9602C65.7035 22.9432 66.445 22.1534 67.4052 21.5909C68.3711 21.0227 69.516 20.7386 70.8399 20.7386C72.1638 20.7386 73.3058 21.0227 74.266 21.5909C75.2319 22.1534 75.9763 22.9432 76.499 23.9602C77.0217 24.9716 77.2831 26.1534 77.2831 27.5057C77.2831 28.8466 77.0217 30.0256 76.499 31.0426C75.9763 32.054 75.2319 32.8437 74.266 33.4119C73.3058 33.9744 72.1638 34.2557 70.8399 34.2557ZM70.8569 31.4432C71.4592 31.4432 71.962 31.2727 72.3655 30.9318C72.7689 30.5852 73.0728 30.1136 73.2774 29.517C73.4876 28.9205 73.5927 28.2415 73.5927 27.4801C73.5927 26.7188 73.4876 26.0398 73.2774 25.4432C73.0728 24.8466 72.7689 24.375 72.3655 24.0284C71.962 23.6818 71.4592 23.5085 70.8569 23.5085C70.249 23.5085 69.7376 23.6818 69.3228 24.0284C68.9138 24.375 68.6041 24.8466 68.3939 25.4432C68.1893 26.0398 68.087 26.7188 68.087 27.4801C68.087 28.2415 68.1893 28.9205 68.3939 29.517C68.6041 30.1136 68.9138 30.5852 69.3228 30.9318C69.7376 31.2727 70.249 31.4432 70.8569 31.4432ZM78.272 34V16.5455H81.9027V23.108H82.0135C82.1726 22.7557 82.4027 22.3977 82.7039 22.0341C83.0107 21.6648 83.4084 21.358 83.897 21.1136C84.3914 20.8636 85.005 20.7386 85.738 20.7386C86.6925 20.7386 87.5732 20.9886 88.38 21.4886C89.1868 21.983 89.8317 22.7301 90.3147 23.7301C90.7976 24.7244 91.0391 25.9716 91.0391 27.4716C91.0391 28.9318 90.8033 30.1648 90.3317 31.1705C89.8658 32.1705 89.2294 32.929 88.4226 33.446C87.6215 33.9574 86.7238 34.2131 85.7294 34.2131C85.0249 34.2131 84.4255 34.0966 83.9311 33.8636C83.4425 33.6307 83.0419 33.3381 82.7294 32.9858C82.4169 32.6278 82.1783 32.267 82.0135 31.9034H81.8516V34H78.272ZM81.826 27.4545C81.826 28.233 81.934 28.9119 82.1499 29.4915C82.3658 30.071 82.6783 30.5227 83.0874 30.8466C83.4965 31.1648 83.9936 31.3239 84.5789 31.3239C85.1698 31.3239 85.6698 31.1619 86.0789 30.8381C86.488 30.5085 86.7976 30.054 87.0078 29.4744C87.2238 28.8892 87.3317 28.2159 87.3317 27.4545C87.3317 26.6989 87.2266 26.0341 87.0164 25.4602C86.8061 24.8864 86.4965 24.4375 86.0874 24.1136C85.6783 23.7898 85.1755 23.6278 84.5789 23.6278C83.988 23.6278 83.488 23.7841 83.0789 24.0966C82.6755 24.4091 82.3658 24.8523 82.1499 25.4261C81.934 26 81.826 26.6761 81.826 27.4545ZM92.0217 34V20.9091H95.6524V34H92.0217ZM93.8455 19.2216C93.3058 19.2216 92.8427 19.0426 92.4563 18.6847C92.0757 18.321 91.8853 17.8864 91.8853 17.3807C91.8853 16.8807 92.0757 16.4517 92.4563 16.0938C92.8427 15.7301 93.3058 15.5483 93.8455 15.5483C94.3853 15.5483 94.8455 15.7301 95.2262 16.0938C95.6126 16.4517 95.8058 16.8807 95.8058 17.3807C95.8058 17.8864 95.6126 18.321 95.2262 18.6847C94.8455 19.0426 94.3853 19.2216 93.8455 19.2216ZM100.751 26.4318V34H97.1207V20.9091H100.581V23.2188H100.734C101.024 22.4574 101.51 21.8551 102.192 21.4119C102.874 20.9631 103.7 20.7386 104.672 20.7386C105.581 20.7386 106.374 20.9375 107.05 21.3352C107.726 21.733 108.251 22.3011 108.626 23.0398C109.001 23.7727 109.189 24.6477 109.189 25.6648V34H105.558V26.3125C105.564 25.5114 105.359 24.8864 104.945 24.4375C104.53 23.983 103.959 23.7557 103.232 23.7557C102.743 23.7557 102.311 23.8608 101.936 24.071C101.567 24.2812 101.277 24.5881 101.067 24.9915C100.862 25.3892 100.757 25.8693 100.751 26.4318ZM113.193 34L109.63 20.9091H113.304L115.332 29.7045H115.451L117.565 20.9091H121.17L123.318 29.6534H123.429L125.423 20.9091H129.088L125.534 34H121.69L119.44 25.767H119.278L117.028 34H113.193ZM135.171 34.2557C133.847 34.2557 132.702 33.9744 131.736 33.4119C130.776 32.8437 130.035 32.054 129.512 31.0426C128.989 30.0256 128.728 28.8466 128.728 27.5057C128.728 26.1534 128.989 24.9716 129.512 23.9602C130.035 22.9432 130.776 22.1534 131.736 21.5909C132.702 21.0227 133.847 20.7386 135.171 20.7386C136.495 20.7386 137.637 21.0227 138.597 21.5909C139.563 22.1534 140.308 22.9432 140.83 23.9602C141.353 24.9716 141.614 26.1534 141.614 27.5057C141.614 28.8466 141.353 30.0256 140.83 31.0426C140.308 32.054 139.563 32.8437 138.597 33.4119C137.637 33.9744 136.495 34.2557 135.171 34.2557ZM135.188 31.4432C135.79 31.4432 136.293 31.2727 136.697 30.9318C137.1 30.5852 137.404 30.1136 137.609 29.517C137.819 28.9205 137.924 28.2415 137.924 27.4801C137.924 26.7188 137.819 26.0398 137.609 25.4432C137.404 24.8466 137.1 24.375 136.697 24.0284C136.293 23.6818 135.79 23.5085 135.188 23.5085C134.58 23.5085 134.069 23.6818 133.654 24.0284C133.245 24.375 132.935 24.8466 132.725 25.4432C132.521 26.0398 132.418 26.7188 132.418 27.4801C132.418 28.2415 132.521 28.9205 132.725 29.517C132.935 30.1136 133.245 30.5852 133.654 30.9318C134.069 31.2727 134.58 31.4432 135.188 31.4432ZM148.45 34.2557C147.126 34.2557 145.981 33.9744 145.015 33.4119C144.055 32.8437 143.314 32.054 142.791 31.0426C142.268 30.0256 142.007 28.8466 142.007 27.5057C142.007 26.1534 142.268 24.9716 142.791 23.9602C143.314 22.9432 144.055 22.1534 145.015 21.5909C145.981 21.0227 147.126 20.7386 148.45 20.7386C149.774 20.7386 150.916 21.0227 151.876 21.5909C152.842 22.1534 153.586 22.9432 154.109 23.9602C154.632 24.9716 154.893 26.1534 154.893 27.5057C154.893 28.8466 154.632 30.0256 154.109 31.0426C153.586 32.054 152.842 32.8437 151.876 33.4119C150.916 33.9744 149.774 34.2557 148.45 34.2557ZM148.467 31.4432C149.069 31.4432 149.572 31.2727 149.975 30.9318C150.379 30.5852 150.683 30.1136 150.887 29.517C151.098 28.9205 151.203 28.2415 151.203 27.4801C151.203 26.7188 151.098 26.0398 150.887 25.4432C150.683 24.8466 150.379 24.375 149.975 24.0284C149.572 23.6818 149.069 23.5085 148.467 23.5085C147.859 23.5085 147.348 23.6818 146.933 24.0284C146.524 24.375 146.214 24.8466 146.004 25.4432C145.799 26.0398 145.697 26.7188 145.697 27.4801C145.697 28.2415 145.799 28.9205 146.004 29.517C146.214 30.1136 146.524 30.5852 146.933 30.9318C147.348 31.2727 147.859 31.4432 148.467 31.4432ZM160.638 34.2131C159.643 34.2131 158.743 33.9574 157.936 33.446C157.135 32.929 156.499 32.1705 156.027 31.1705C155.561 30.1648 155.328 28.9318 155.328 27.4716C155.328 25.9716 155.57 24.7244 156.052 23.7301C156.535 22.7301 157.177 21.983 157.979 21.4886C158.785 20.9886 159.669 20.7386 160.629 20.7386C161.362 20.7386 161.973 20.8636 162.462 21.1136C162.956 21.358 163.354 21.6648 163.655 22.0341C163.962 22.3977 164.195 22.7557 164.354 23.108H164.464V16.5455H168.087V34H164.507V31.9034H164.354C164.183 32.267 163.942 32.6278 163.629 32.9858C163.322 33.3381 162.922 33.6307 162.427 33.8636C161.939 34.0966 161.342 34.2131 160.638 34.2131ZM161.788 31.3239C162.374 31.3239 162.868 31.1648 163.271 30.8466C163.68 30.5227 163.993 30.071 164.209 29.4915C164.43 28.9119 164.541 28.233 164.541 27.4545C164.541 26.6761 164.433 26 164.217 25.4261C164.001 24.8523 163.689 24.4091 163.28 24.0966C162.871 23.7841 162.374 23.6278 161.788 23.6278C161.192 23.6278 160.689 23.7898 160.28 24.1136C159.871 24.4375 159.561 24.8864 159.351 25.4602C159.141 26.0341 159.035 26.6989 159.035 27.4545C159.035 28.2159 159.141 28.8892 159.351 29.4744C159.567 30.054 159.876 30.5085 160.28 30.8381C160.689 31.1619 161.192 31.3239 161.788 31.3239Z" fill="#171717"/>
<path d="M7.15264 34.7501L14.3229 27.5799L19.5083 32.7653L27.8887 24.385L31.1756 27.672V18.5054H22.009L25.296 21.7923L19.5083 27.5799L14.3229 22.3945L5.25546 31.4618C4.24005 29.1839 3.6756 26.6605 3.6756 24.0053C3.6756 13.8801 11.8837 5.67203 22.009 5.67203C32.1341 5.67203 40.3423 13.8801 40.3423 24.0053C40.3423 34.1306 32.1341 42.3386 22.009 42.3386C15.8971 42.3386 10.4838 39.3479 7.15264 34.7501Z" fill="#404040"/>
</svg>
