<svg width="54" height="54" viewBox="0 0 54 54" fill="none" xmlns="http://www.w3.org/2000/svg">
<g filter="url(#filter0_dd_11325_423)">
<path d="M3 26C3 12.7452 13.7452 2 27 2C40.2548 2 51 12.7452 51 26C51 39.2548 40.2548 50 27 50C13.7452 50 3 39.2548 3 26Z" fill="white"/>
<path d="M19 19V33H35V19H19ZM18 17H36C36.5523 17 37 17.4477 37 18V34C37 34.5523 36.5523 35 36 35H18C17.4477 35 17 34.5523 17 34V18C17 17.4477 17.4477 17 18 17ZM22.5 25.25H24.5V23H26V29H24.5V26.75H22.5V29H21V23H22.5V25.25ZM29.5 24.5V27.5H31C31.2761 27.5 31.5 27.2761 31.5 27V25C31.5 24.7239 31.2761 24.5 31 24.5H29.5ZM28 23H31C32.1046 23 33 23.8954 33 25V27C33 28.1046 32.1046 29 31 29H28V23Z" fill="#4338CA"/>
</g>
<defs>
<filter id="filter0_dd_11325_423" x="0" y="0" width="54" height="54" filterUnits="userSpaceOnUse" color-interpolation-filters="sRGB">
<feFlood flood-opacity="0" result="BackgroundImageFix"/>
<feColorMatrix in="SourceAlpha" type="matrix" values="0 0 0 0 0 0 0 0 0 0 0 0 0 0 0 0 0 0 127 0" result="hardAlpha"/>
<feOffset dy="1"/>
<feGaussianBlur stdDeviation="1"/>
<feColorMatrix type="matrix" values="0 0 0 0 0 0 0 0 0 0 0 0 0 0 0 0 0 0 0.06 0"/>
<feBlend mode="normal" in2="BackgroundImageFix" result="effect1_dropShadow_11325_423"/>
<feColorMatrix in="SourceAlpha" type="matrix" values="0 0 0 0 0 0 0 0 0 0 0 0 0 0 0 0 0 0 127 0" result="hardAlpha"/>
<feOffset dy="1"/>
<feGaussianBlur stdDeviation="1.5"/>
<feColorMatrix type="matrix" values="0 0 0 0 0 0 0 0 0 0 0 0 0 0 0 0 0 0 0.1 0"/>
<feBlend mode="normal" in2="effect1_dropShadow_11325_423" result="effect2_dropShadow_11325_423"/>
<feBlend mode="normal" in="SourceGraphic" in2="effect2_dropShadow_11325_423" result="shape"/>
</filter>
</defs>
</svg>
