<svg width="54" height="54" viewBox="0 0 54 54" fill="none" xmlns="http://www.w3.org/2000/svg">
<g filter="url(#filter0_dd_11273_1475)">
<path d="M3 26C3 12.7452 13.7452 2 27 2C40.2548 2 51 12.7452 51 26C51 39.2548 40.2548 50 27 50C13.7452 50 3 39.2548 3 26Z" fill="white"/>
<path d="M27 25C29.7614 25 32 27.2386 32 30V36H30V30C30 28.4023 28.7511 27.0963 27.1763 27.0051L27 27C25.4023 27 24.0963 28.2489 24.0051 29.8237L24 30V36H22V30C22 27.2386 24.2386 25 27 25ZM20.5 28C20.7789 28 21.0501 28.0326 21.3101 28.0942C21.142 28.594 21.0387 29.122 21.009 29.6693L21 30L21.0007 30.0856C20.8876 30.0456 20.7682 30.0187 20.6445 30.0069L20.5 30C19.7203 30 19.0795 30.5949 19.0069 31.3555L19 31.5V36H17V31.5C17 29.567 18.567 28 20.5 28ZM33.5 28C35.433 28 37 29.567 37 31.5V36H35V31.5C35 30.7203 34.4051 30.0796 33.6445 30.0069L33.5 30C33.3248 30 33.1566 30.03 33.0003 30.0852L33 30C33 29.3343 32.8916 28.694 32.6915 28.0956C32.9499 28.0326 33.2211 28 33.5 28ZM20.5 22C21.8807 22 23 23.1193 23 24.5C23 25.8807 21.8807 27 20.5 27C19.1193 27 18 25.8807 18 24.5C18 23.1193 19.1193 22 20.5 22ZM33.5 22C34.8807 22 36 23.1193 36 24.5C36 25.8807 34.8807 27 33.5 27C32.1193 27 31 25.8807 31 24.5C31 23.1193 32.1193 22 33.5 22ZM20.5 24C20.2239 24 20 24.2239 20 24.5C20 24.7761 20.2239 25 20.5 25C20.7761 25 21 24.7761 21 24.5C21 24.2239 20.7761 24 20.5 24ZM33.5 24C33.2239 24 33 24.2239 33 24.5C33 24.7761 33.2239 25 33.5 25C33.7761 25 34 24.7761 34 24.5C34 24.2239 33.7761 24 33.5 24ZM27 16C29.2091 16 31 17.7909 31 20C31 22.2091 29.2091 24 27 24C24.7909 24 23 22.2091 23 20C23 17.7909 24.7909 16 27 16ZM27 18C25.8954 18 25 18.8954 25 20C25 21.1046 25.8954 22 27 22C28.1046 22 29 21.1046 29 20C29 18.8954 28.1046 18 27 18Z" fill="#4338CA"/>
</g>
<defs>
<filter id="filter0_dd_11273_1475" x="0" y="0" width="54" height="54" filterUnits="userSpaceOnUse" color-interpolation-filters="sRGB">
<feFlood flood-opacity="0" result="BackgroundImageFix"/>
<feColorMatrix in="SourceAlpha" type="matrix" values="0 0 0 0 0 0 0 0 0 0 0 0 0 0 0 0 0 0 127 0" result="hardAlpha"/>
<feOffset dy="1"/>
<feGaussianBlur stdDeviation="1"/>
<feColorMatrix type="matrix" values="0 0 0 0 0 0 0 0 0 0 0 0 0 0 0 0 0 0 0.06 0"/>
<feBlend mode="normal" in2="BackgroundImageFix" result="effect1_dropShadow_11273_1475"/>
<feColorMatrix in="SourceAlpha" type="matrix" values="0 0 0 0 0 0 0 0 0 0 0 0 0 0 0 0 0 0 127 0" result="hardAlpha"/>
<feOffset dy="1"/>
<feGaussianBlur stdDeviation="1.5"/>
<feColorMatrix type="matrix" values="0 0 0 0 0 0 0 0 0 0 0 0 0 0 0 0 0 0 0.1 0"/>
<feBlend mode="normal" in2="effect1_dropShadow_11273_1475" result="effect2_dropShadow_11273_1475"/>
<feBlend mode="normal" in="SourceGraphic" in2="effect2_dropShadow_11273_1475" result="shape"/>
</filter>
</defs>
</svg>
