<svg width="54" height="54" viewBox="0 0 54 54" fill="none" xmlns="http://www.w3.org/2000/svg">
<g filter="url(#filter0_dd_11325_20)">
<path d="M3 26C3 12.7452 13.7452 2 27 2C40.2548 2 51 12.7452 51 26C51 39.2548 40.2548 50 27 50C13.7452 50 3 39.2548 3 26Z" fill="white"/>
<path d="M30.5018 34.0047C29.8432 35.5841 28.5794 36.848 27 37.5066C25.4206 36.848 24.1568 35.5841 23.4982 34.0047H25.7575C26.0838 34.4933 26.5051 34.9171 27 35.248C27.4949 34.9171 27.9162 34.4933 28.2425 34.0047H30.5018ZM33 28.8095L35 31.0777V33.0047H19V31.0777L21 28.8095V23.0048C21 19.5215 23.5044 16.5582 27 15.46C30.4956 16.5582 33 19.5215 33 23.0048V28.8095ZM32.2692 31.0047L31 29.5653V23.0048C31 20.6869 29.4292 18.5743 27 17.5838C24.5708 18.5743 23 20.6869 23 23.0048V29.5653L21.7308 31.0047H32.2692ZM27 25.0047C25.8954 25.0047 25 24.1093 25 23.0048C25 21.9002 25.8954 21.0048 27 21.0048C28.1046 21.0048 29 21.9002 29 23.0048C29 24.1093 28.1046 25.0047 27 25.0047Z" fill="#4338CA"/>
</g>
<defs>
<filter id="filter0_dd_11325_20" x="0" y="0" width="54" height="54" filterUnits="userSpaceOnUse" color-interpolation-filters="sRGB">
<feFlood flood-opacity="0" result="BackgroundImageFix"/>
<feColorMatrix in="SourceAlpha" type="matrix" values="0 0 0 0 0 0 0 0 0 0 0 0 0 0 0 0 0 0 127 0" result="hardAlpha"/>
<feOffset dy="1"/>
<feGaussianBlur stdDeviation="1"/>
<feColorMatrix type="matrix" values="0 0 0 0 0 0 0 0 0 0 0 0 0 0 0 0 0 0 0.06 0"/>
<feBlend mode="normal" in2="BackgroundImageFix" result="effect1_dropShadow_11325_20"/>
<feColorMatrix in="SourceAlpha" type="matrix" values="0 0 0 0 0 0 0 0 0 0 0 0 0 0 0 0 0 0 127 0" result="hardAlpha"/>
<feOffset dy="1"/>
<feGaussianBlur stdDeviation="1.5"/>
<feColorMatrix type="matrix" values="0 0 0 0 0 0 0 0 0 0 0 0 0 0 0 0 0 0 0.1 0"/>
<feBlend mode="normal" in2="effect1_dropShadow_11325_20" result="effect2_dropShadow_11325_20"/>
<feBlend mode="normal" in="SourceGraphic" in2="effect2_dropShadow_11325_20" result="shape"/>
</filter>
</defs>
</svg>
