<svg width="54" height="54" viewBox="0 0 54 54" fill="none" xmlns="http://www.w3.org/2000/svg">
<g filter="url(#filter0_dd_11273_1468)">
<path d="M3 26C3 12.7452 13.7452 2 27 2C40.2548 2 51 12.7452 51 26C51 39.2548 40.2548 50 27 50C13.7452 50 3 39.2548 3 26Z" fill="white"/>
<path d="M27.0049 16C32.5277 16 37.0049 20.4771 37.0049 26C37.0049 31.5228 32.5277 36 27.0049 36C24.5785 36 22.3539 35.1358 20.6222 33.6985L20.3782 33.4892L21.2795 31.5875C22.7323 33.0759 24.7607 34 27.0049 34C31.4232 34 35.0049 30.4183 35.0049 26C35.0049 21.5817 31.4232 18 27.0049 18C22.67 18 19.1403 21.4478 19.0087 25.7508L19.0049 26H21.5049L18.7985 31.7161C17.668 30.096 17.0049 28.1254 17.0049 26C17.0049 20.4771 21.482 16 27.0049 16ZM28.0049 20V22H30.5049V24H25.0049C24.7287 24 24.5049 24.2239 24.5049 24.5C24.5049 24.7455 24.6818 24.9496 24.915 24.9919L25.0049 25H29.0049C30.3856 25 31.5049 26.1193 31.5049 27.5C31.5049 28.8807 30.3856 30 29.0049 30H28.0049V32H26.0049V30H23.5049V28H29.0049C29.281 28 29.5049 27.7761 29.5049 27.5C29.5049 27.2545 29.328 27.0504 29.0948 27.0081L29.0049 27H25.0049C23.6242 27 22.5049 25.8807 22.5049 24.5C22.5049 23.1193 23.6242 22 25.0049 22H26.0049V20H28.0049Z" fill="#4338CA"/>
</g>
<defs>
<filter id="filter0_dd_11273_1468" x="0" y="0" width="54" height="54" filterUnits="userSpaceOnUse" color-interpolation-filters="sRGB">
<feFlood flood-opacity="0" result="BackgroundImageFix"/>
<feColorMatrix in="SourceAlpha" type="matrix" values="0 0 0 0 0 0 0 0 0 0 0 0 0 0 0 0 0 0 127 0" result="hardAlpha"/>
<feOffset dy="1"/>
<feGaussianBlur stdDeviation="1"/>
<feColorMatrix type="matrix" values="0 0 0 0 0 0 0 0 0 0 0 0 0 0 0 0 0 0 0.06 0"/>
<feBlend mode="normal" in2="BackgroundImageFix" result="effect1_dropShadow_11273_1468"/>
<feColorMatrix in="SourceAlpha" type="matrix" values="0 0 0 0 0 0 0 0 0 0 0 0 0 0 0 0 0 0 127 0" result="hardAlpha"/>
<feOffset dy="1"/>
<feGaussianBlur stdDeviation="1.5"/>
<feColorMatrix type="matrix" values="0 0 0 0 0 0 0 0 0 0 0 0 0 0 0 0 0 0 0.1 0"/>
<feBlend mode="normal" in2="effect1_dropShadow_11273_1468" result="effect2_dropShadow_11273_1468"/>
<feBlend mode="normal" in="SourceGraphic" in2="effect2_dropShadow_11273_1468" result="shape"/>
</filter>
</defs>
</svg>
