<svg width="54" height="54" viewBox="0 0 54 54" fill="none" xmlns="http://www.w3.org/2000/svg">
<g filter="url(#filter0_dd_11273_1482)">
<path d="M3 26C3 12.7452 13.7452 2 27 2C40.2548 2 51 12.7452 51 26C51 39.2548 40.2548 50 27 50C13.7452 50 3 39.2548 3 26Z" fill="white"/>
<path d="M20.4626 18.4326C22.2156 16.9169 24.5007 16 27 16C32.5228 16 37 20.4771 37 26C37 28.1361 36.3302 30.1158 35.1892 31.7406L32 26H35C35 21.5817 31.4183 18 27 18C24.8498 18 22.8978 18.8483 21.4602 20.2284L20.4626 18.4326ZM33.5374 33.5674C31.7844 35.0831 29.4993 36 27 36C21.4771 36 17 31.5228 17 26C17 23.8639 17.6698 21.8842 18.8108 20.2594L22 26H19C19 30.4183 22.5817 34 27 34C29.1502 34 31.1022 33.1517 32.5398 31.7716L33.5374 33.5674Z" fill="#4338CA"/>
</g>
<defs>
<filter id="filter0_dd_11273_1482" x="0" y="0" width="54" height="54" filterUnits="userSpaceOnUse" color-interpolation-filters="sRGB">
<feFlood flood-opacity="0" result="BackgroundImageFix"/>
<feColorMatrix in="SourceAlpha" type="matrix" values="0 0 0 0 0 0 0 0 0 0 0 0 0 0 0 0 0 0 127 0" result="hardAlpha"/>
<feOffset dy="1"/>
<feGaussianBlur stdDeviation="1"/>
<feColorMatrix type="matrix" values="0 0 0 0 0 0 0 0 0 0 0 0 0 0 0 0 0 0 0.06 0"/>
<feBlend mode="normal" in2="BackgroundImageFix" result="effect1_dropShadow_11273_1482"/>
<feColorMatrix in="SourceAlpha" type="matrix" values="0 0 0 0 0 0 0 0 0 0 0 0 0 0 0 0 0 0 127 0" result="hardAlpha"/>
<feOffset dy="1"/>
<feGaussianBlur stdDeviation="1.5"/>
<feColorMatrix type="matrix" values="0 0 0 0 0 0 0 0 0 0 0 0 0 0 0 0 0 0 0.1 0"/>
<feBlend mode="normal" in2="effect1_dropShadow_11273_1482" result="effect2_dropShadow_11273_1482"/>
<feBlend mode="normal" in="SourceGraphic" in2="effect2_dropShadow_11273_1482" result="shape"/>
</filter>
</defs>
</svg>
