<svg width="54" height="54" viewBox="0 0 54 54" fill="none" xmlns="http://www.w3.org/2000/svg">
<g filter="url(#filter0_dd_11325_27)">
<path d="M3 26C3 12.7452 13.7452 2 27 2C40.2548 2 51 12.7452 51 26C51 39.2548 40.2548 50 27 50C13.7452 50 3 39.2548 3 26Z" fill="white"/>
<path d="M32 20C31.4477 20 31 19.5523 31 19C31 18.4477 31.4477 18 32 18C32.5523 18 33 18.4477 33 19C33 19.5523 32.5523 20 32 20ZM32 22C33.6569 22 35 20.6568 35 19C35 17.3432 33.6569 16 32 16C30.3431 16 29 17.3432 29 19C29 20.6568 30.3431 22 32 22ZM22 17C19.7909 17 18 18.7909 18 21V23H20V21C20 19.8954 20.8954 19 22 19H25V17H22ZM32 35C34.2091 35 36 33.2091 36 31V29H34V31C34 32.1046 33.1046 33 32 33H29V35H32ZM23 27C23 26.4477 22.5523 26 22 26C21.4477 26 21 26.4477 21 27C21 27.5523 21.4477 28 22 28C22.5523 28 23 27.5523 23 27ZM25 27C25 28.6569 23.6568 30 22 30C20.3432 30 19 28.6569 19 27C19 25.3431 20.3432 24 22 24C23.6568 24 25 25.3431 25 27ZM32 25C30.8954 25 30 25.8954 30 27H28C28 24.7909 29.7909 23 32 23C34.2091 23 36 24.7909 36 27H34C34 25.8954 33.1046 25 32 25ZM20 35C20 33.8954 20.8954 33 22 33C23.1046 33 24 33.8954 24 35H26C26 32.7909 24.2091 31 22 31C19.7909 31 18 32.7909 18 35H20Z" fill="#4338CA"/>
</g>
<defs>
<filter id="filter0_dd_11325_27" x="0" y="0" width="54" height="54" filterUnits="userSpaceOnUse" color-interpolation-filters="sRGB">
<feFlood flood-opacity="0" result="BackgroundImageFix"/>
<feColorMatrix in="SourceAlpha" type="matrix" values="0 0 0 0 0 0 0 0 0 0 0 0 0 0 0 0 0 0 127 0" result="hardAlpha"/>
<feOffset dy="1"/>
<feGaussianBlur stdDeviation="1"/>
<feColorMatrix type="matrix" values="0 0 0 0 0 0 0 0 0 0 0 0 0 0 0 0 0 0 0.06 0"/>
<feBlend mode="normal" in2="BackgroundImageFix" result="effect1_dropShadow_11325_27"/>
<feColorMatrix in="SourceAlpha" type="matrix" values="0 0 0 0 0 0 0 0 0 0 0 0 0 0 0 0 0 0 127 0" result="hardAlpha"/>
<feOffset dy="1"/>
<feGaussianBlur stdDeviation="1.5"/>
<feColorMatrix type="matrix" values="0 0 0 0 0 0 0 0 0 0 0 0 0 0 0 0 0 0 0.1 0"/>
<feBlend mode="normal" in2="effect1_dropShadow_11325_27" result="effect2_dropShadow_11325_27"/>
<feBlend mode="normal" in="SourceGraphic" in2="effect2_dropShadow_11325_27" result="shape"/>
</filter>
</defs>
</svg>
