<svg width="54" height="54" viewBox="0 0 54 54" fill="none" xmlns="http://www.w3.org/2000/svg">
<g filter="url(#filter0_dd_11325_34)">
<path d="M3 26C3 12.7452 13.7452 2 27 2C40.2548 2 51 12.7452 51 26C51 39.2548 40.2548 50 27 50C13.7452 50 3 39.2548 3 26Z" fill="white"/>
<path d="M31.2877 23.4277C30.413 21.9735 28.8195 21 27 21C24.24 21 22 23.24 22 26C22 28.76 24.24 31 27 31C28.8195 31 30.413 30.0265 31.2877 28.5723L29.5729 27.5442C29.0483 28.4166 28.0927 29 27 29C25.3425 29 24 27.6575 24 26C24 24.3425 25.3425 23 27 23C28.093 23 29.0491 23.5839 29.5735 24.4568L31.2877 23.4277ZM37 26C37 20.48 32.52 16 27 16C21.48 16 17 20.48 17 26C17 31.52 21.48 36 27 36C32.52 36 37 31.52 37 26ZM19 26C19 21.58 22.58 18 27 18C31.42 18 35 21.58 35 26C35 30.42 31.42 34 27 34C22.58 34 19 30.42 19 26Z" fill="#4338CA"/>
</g>
<defs>
<filter id="filter0_dd_11325_34" x="0" y="0" width="54" height="54" filterUnits="userSpaceOnUse" color-interpolation-filters="sRGB">
<feFlood flood-opacity="0" result="BackgroundImageFix"/>
<feColorMatrix in="SourceAlpha" type="matrix" values="0 0 0 0 0 0 0 0 0 0 0 0 0 0 0 0 0 0 127 0" result="hardAlpha"/>
<feOffset dy="1"/>
<feGaussianBlur stdDeviation="1"/>
<feColorMatrix type="matrix" values="0 0 0 0 0 0 0 0 0 0 0 0 0 0 0 0 0 0 0.06 0"/>
<feBlend mode="normal" in2="BackgroundImageFix" result="effect1_dropShadow_11325_34"/>
<feColorMatrix in="SourceAlpha" type="matrix" values="0 0 0 0 0 0 0 0 0 0 0 0 0 0 0 0 0 0 127 0" result="hardAlpha"/>
<feOffset dy="1"/>
<feGaussianBlur stdDeviation="1.5"/>
<feColorMatrix type="matrix" values="0 0 0 0 0 0 0 0 0 0 0 0 0 0 0 0 0 0 0.1 0"/>
<feBlend mode="normal" in2="effect1_dropShadow_11325_34" result="effect2_dropShadow_11325_34"/>
<feBlend mode="normal" in="SourceGraphic" in2="effect2_dropShadow_11325_34" result="shape"/>
</filter>
</defs>
</svg>
