<svg width="54" height="54" viewBox="0 0 54 54" fill="none" xmlns="http://www.w3.org/2000/svg">
<g filter="url(#filter0_dd_11325_437)">
<path d="M3 26C3 12.7452 13.7452 2 27 2C40.2548 2 51 12.7452 51 26C51 39.2548 40.2548 50 27 50C13.7452 50 3 39.2548 3 26Z" fill="white"/>
<path d="M27 18C33.0751 18 38 22.9249 38 29V34H36V29C36 24.1182 32.1132 20.1442 27.2654 20.0038L27 20C22.1182 20 18.1442 23.8868 18.0038 28.7346L18 29V34H16V29C16 22.9249 20.9249 18 27 18ZM27 22C30.866 22 34 25.134 34 29V34H32V29C32 26.3112 29.8777 24.1182 27.2169 24.0046L27 24C24.3112 24 22.1182 26.1223 22.0046 28.7831L22 29V34H20V29C20 25.134 23.134 22 27 22ZM27 26C28.6569 26 30 27.3431 30 29V34H28V29C28 28.4872 27.614 28.0645 27.1166 28.0067L27 28C26.4872 28 26.0645 28.386 26.0067 28.8834L26 29V34H24V29C24 27.3431 25.3431 26 27 26Z" fill="#4338CA"/>
</g>
<defs>
<filter id="filter0_dd_11325_437" x="0" y="0" width="54" height="54" filterUnits="userSpaceOnUse" color-interpolation-filters="sRGB">
<feFlood flood-opacity="0" result="BackgroundImageFix"/>
<feColorMatrix in="SourceAlpha" type="matrix" values="0 0 0 0 0 0 0 0 0 0 0 0 0 0 0 0 0 0 127 0" result="hardAlpha"/>
<feOffset dy="1"/>
<feGaussianBlur stdDeviation="1"/>
<feColorMatrix type="matrix" values="0 0 0 0 0 0 0 0 0 0 0 0 0 0 0 0 0 0 0.06 0"/>
<feBlend mode="normal" in2="BackgroundImageFix" result="effect1_dropShadow_11325_437"/>
<feColorMatrix in="SourceAlpha" type="matrix" values="0 0 0 0 0 0 0 0 0 0 0 0 0 0 0 0 0 0 127 0" result="hardAlpha"/>
<feOffset dy="1"/>
<feGaussianBlur stdDeviation="1.5"/>
<feColorMatrix type="matrix" values="0 0 0 0 0 0 0 0 0 0 0 0 0 0 0 0 0 0 0.1 0"/>
<feBlend mode="normal" in2="effect1_dropShadow_11325_437" result="effect2_dropShadow_11325_437"/>
<feBlend mode="normal" in="SourceGraphic" in2="effect2_dropShadow_11325_437" result="shape"/>
</filter>
</defs>
</svg>
